<?xml version="1.0" encoding="UTF-8" standalone="no"?>
<!-- Generator: Adobe Illustrator 16.0.0, SVG Export Plug-In . SVG Version: 6.00 Build 0)  -->

<svg
   version="1.1"
   id="Capa_1"
   x="0px"
   y="0px"
   width="512.013px"
   height="512.014px"
   viewBox="0 0 512.013 512.014"
   style="enable-background:new 0 0 512.013 512.014;"
   xml:space="preserve"
   sodipodi:docname="commerce-avatar.svg"
   inkscape:version="1.2.2 (732a01da63, 2022-12-09)"
   xmlns:inkscape="http://www.inkscape.org/namespaces/inkscape"
   xmlns:sodipodi="http://sodipodi.sourceforge.net/DTD/sodipodi-0.dtd"
   xmlns="http://www.w3.org/2000/svg"
   xmlns:svg="http://www.w3.org/2000/svg"><defs
   id="defs39" /><sodipodi:namedview
   id="namedview37"
   pagecolor="#ffffff"
   bordercolor="#000000"
   borderopacity="0.25"
   inkscape:showpageshadow="2"
   inkscape:pageopacity="0.0"
   inkscape:pagecheckerboard="0"
   inkscape:deskcolor="#d1d1d1"
   showgrid="false"
   inkscape:zoom="1.144874"
   inkscape:cx="226.22577"
   inkscape:cy="224.47885"
   inkscape:window-width="1920"
   inkscape:window-height="1009"
   inkscape:window-x="-8"
   inkscape:window-y="-8"
   inkscape:window-maximized="1"
   inkscape:current-layer="Capa_1" />
<g
   id="g8">
<rect
   style="display:inline;fill:#222d3a;fill-opacity:1;stroke:#b3bac0;stroke-opacity:0.901961"
   id="rect856"
   width="513.11304"
   height="513.13245"
   x="1.612179"
   y="1.6024655" /></g><g
   id="g2458"
   transform="matrix(0.80009791,0,0,0.82024945,-12.690812,-25.009904)"><g
     id="g2453"><g
       id="g4"
       style="fill:#222d3a;fill-opacity:1"
       transform="matrix(0.665638,0,0,0.62639176,171.19796,191.29003)">
	<path
   d="m 31.972,256.007 c 10.344,0 20.469,-5 26.656,-14.25 l 6.875,-10.313 c 3.438,13.969 15.469,24.563 30.5,24.563 17.688,0 32,-14.313 32,-32 0,17.688 14.313,32 32,32 17.687,0 32,-14.313 32,-32 0,17.688 14.313,32 32,32 17.687,0 32,-14.313 32,-32 0,17.688 14.312,32 32,32 17.687,0 32,-14.313 32,-32 0,17.688 14.312,32 32,32 17.688,0 32,-14.313 32,-32 0,17.688 14.312,32 32,32 15.062,0 27.062,-10.594 30.5,-24.563 l 6.875,10.313 c 6.156,9.25 16.312,14.25 26.656,14.25 6.094,0 12.25,-1.75 17.719,-5.375 14.719,-9.813 18.688,-29.688 8.875,-44.375 l -58.625,-78.25 h -128 v -32 h 32 c 17.688,0 32,-14.313 32,-32 v -32 c 0,-17.688 -14.312,-32 -32,-32 h -192 c -17.688,0 -32,14.313 -32,32 v 32 c 0,17.688 14.313,32 32,32 h 32 v 32 h -128 l -58.625,78.25 c -9.813,14.688 -5.813,34.563 8.875,44.375 5.437,3.625 11.624,5.375 17.719,5.375 z m 280.03,-232 h 40 v 24 h -32 v 16 h -8 z m -56,0 h 40 v 40 h -40 z m -48,0 h 8 v 16 h 16 v -16 h 8 v 40 h -8 v -16 h -16 v 16 h -8 z m -48,40 v -8 h 24 v -8 h -24 v -24 h 32 v 8 h -24 v 8 h 24 v 24 z m 64,32 h 64 v 32 h -64 z m 288,416 h -512 c 0,-26.5 21.5,-48 48,-48 h 416 c 26.5,0 48,21.5 48,48 z m -416,-240 h -32 v 144 32 h 384 v -32 -144 h -32 z m 0,144 v -112 h 96 v 112 z m 128,0 v -112 h 192 v 112 z m -80,-64 c 0,8.844 -7.156,16 -16,16 -8.844,0 -16,-7.156 -16,-16 0,-8.844 7.156,-16 16,-16 8.844,0 16,7.156 16,16 z m 200,-312 h -24 v -8 h 24 z m -80,-8 h 24 v 24 h -24 z"
   id="path2"
   style="fill:#b3bac0;fill-opacity:1" />
</g></g></g>
<g
   id="g6">
</g>

<g
   id="g10">
</g>
<g
   id="g12">
</g>
<g
   id="g14">
</g>
<g
   id="g16">
</g>
<g
   id="g18">
</g>
<g
   id="g20">
</g>
<g
   id="g22">
</g>
<g
   id="g24">
</g>
<g
   id="g26">
</g>
<g
   id="g28">
</g>
<g
   id="g30">
</g>
<g
   id="g32">
</g>
<g
   id="g34">
</g>
</svg>
